HIERARCHY
ROOT Hips
{
	OFFSET 0.000000 83.214638 0.000000
	CHANNELS 6 Xposition Yposition Zposition Xrotation Yrotation Zrotation
	JOINT Pelvis
	{
		OFFSET 0.000000 0.000000 0.000000
		CHANNELS 3 Xrotation Yrotation Zrotation
		JOINT LeftUpLeg
		{
			OFFSET 8.479700 -4.795502 -0.379100
			CHANNELS 3 Xrotation Yrotation Zrotation
			JOINT LeftLeg
			{
				OFFSET 0.024144 -32.555107 0.112900
				CHANNELS 3 Xrotation Yrotation Zrotation
				JOINT LeftFoot
				{
					OFFSET -0.024144 -32.638630 -3.012600
					CHANNELS 3 Xrotation Yrotation Zrotation
					JOINT LeftToeBase
					{
						OFFSET 0.970200 -13.225400 11.864200
						CHANNELS 3 Xrotation Yrotation Zrotation
						End Site
						{
							OFFSET 0.000000 12.319262 0.000000
						}
					}
					JOINT LFootTongue
					{
						OFFSET 1.142400 -1.059800 6.665200
						CHANNELS 3 Xrotation Yrotation Zrotation
						End Site
						{
							OFFSET 0.000000 12.319262 0.000000
						}
					}
				}
				JOINT LeftPantLeg
				{
					OFFSET 0.918482 -16.533964 -2.284700
					CHANNELS 3 Xrotation Yrotation Zrotation
					End Site
					{
						OFFSET 0.350399 24.744368 0.000000
					}
				}
			}
		}
		JOINT RightUpLeg
		{
			OFFSET -8.479700 -4.795502 -0.379100
			CHANNELS 3 Xrotation Yrotation Zrotation
			JOINT RightLeg
			{
				OFFSET -0.023144 -32.555092 0.112900
				CHANNELS 3 Xrotation Yrotation Zrotation
				JOINT RightFoot
				{
					OFFSET 0.023144 -32.638641 -3.012700
					CHANNELS 3 Xrotation Yrotation Zrotation
					JOINT RightToeBase
					{
						OFFSET -0.970200 -13.225400 11.864200
						CHANNELS 3 Xrotation Yrotation Zrotation
						End Site
						{
							OFFSET 0.000000 12.319244 0.000000
						}
					}
					JOINT RFootTongue
					{
						OFFSET -1.142200 -1.059800 6.665200
						CHANNELS 3 Xrotation Yrotation Zrotation
						End Site
						{
							OFFSET 0.000000 12.319243 0.000000
						}
					}
				}
				JOINT RightPantLeg
				{
					OFFSET -0.919482 -16.533978 -2.284800
					CHANNELS 3 Xrotation Yrotation Zrotation
					End Site
					{
						OFFSET -0.350400 24.744419 0.000000
					}
				}
			}
		}
	}
	JOINT Spine
	{
		OFFSET 0.000000 7.722000 1.166200
		CHANNELS 3 Xrotation Yrotation Zrotation
		JOINT Spine1
		{
			OFFSET 0.000000 12.024101 0.248800
			CHANNELS 3 Xrotation Yrotation Zrotation
			JOINT Spine2
			{
				OFFSET 0.000000 11.502998 -0.491200
				CHANNELS 3 Xrotation Yrotation Zrotation
				JOINT Neck
				{
					OFFSET 0.000000 18.430702 -3.123100
					CHANNELS 3 Xrotation Yrotation Zrotation
					JOINT Head
					{
						OFFSET 0.000000 9.051102 1.034000
						CHANNELS 3 Xrotation Yrotation Zrotation
						JOINT HairB
						{
							OFFSET 0.208400 24.786102 24.822300
							CHANNELS 3 Xrotation Yrotation Zrotation
							End Site
							{
								OFFSET 0.000000 32.263779 0.000000
							}
						}
						JOINT HairA
						{
							OFFSET -7.081100 24.428299 23.196600
							CHANNELS 3 Xrotation Yrotation Zrotation
							End Site
							{
								OFFSET 0.000000 32.263779 0.000000
							}
						}
						JOINT Hat
						{
							OFFSET 16.728800 15.048294 -15.439601
							CHANNELS 3 Xrotation Yrotation Zrotation
							End Site
							{
								OFFSET 0.000000 32.263779 0.000000
							}
						}
					}
				}
				JOINT LeftShoulder
				{
					OFFSET 6.197800 13.665199 -4.064700
					CHANNELS 3 Xrotation Yrotation Zrotation
					JOINT LeftArm
					{
						OFFSET 7.778100 -0.187103 -1.709300
						CHANNELS 3 Xrotation Yrotation Zrotation
						JOINT LeftForeArm
						{
							OFFSET 22.049376 0.000000 0.000000
							CHANNELS 3 Xrotation Yrotation Zrotation
							JOINT LeftHand
							{
								OFFSET 23.009392 0.000000 0.000000
								CHANNELS 3 Xrotation Yrotation Zrotation
								JOINT LeftHandThumb1
								{
									OFFSET 3.507191 -2.063065 3.133727
									CHANNELS 3 Xrotation Yrotation Zrotation
									JOINT LeftHandThumb2
									{
										OFFSET 3.101337 -1.790558 1.790558
										CHANNELS 3 Xrotation Yrotation Zrotation
										JOINT LeftHandThumb3
										{
											OFFSET 3.058640 -1.765907 1.765906
											CHANNELS 3 Xrotation Yrotation Zrotation
											End Site
											{
												OFFSET -0.415260 3.926476 -0.049563
											}
										}
									}
								}
								JOINT LeftHandIndex1
								{
									OFFSET 11.334419 -0.901459 3.706815
									CHANNELS 3 Xrotation Yrotation Zrotation
									JOINT LeftHandIndex2
									{
										OFFSET 3.283112 0.000000 0.000000
										CHANNELS 3 Xrotation Yrotation Zrotation
										JOINT LeftHandIndex3
										{
											OFFSET 3.323853 0.000000 0.000000
											CHANNELS 3 Xrotation Yrotation Zrotation
											End Site
											{
												OFFSET -1.135597 3.097809 0.402452
											}
										}
									}
								}
								JOINT LeftHandMiddle1
								{
									OFFSET 11.335861 0.000000 0.000000
									CHANNELS 3 Xrotation Yrotation Zrotation
									JOINT LeftHandMiddle2
									{
										OFFSET 3.410492 0.000000 0.000000
										CHANNELS 3 Xrotation Yrotation Zrotation
										JOINT LeftHandMiddle3
										{
											OFFSET 3.312172 0.000000 0.000000
											CHANNELS 3 Xrotation Yrotation Zrotation
											End Site
											{
												OFFSET -1.150200 3.080154 0.400270
											}
										}
									}
								}
								JOINT LeftHandRing1
								{
									OFFSET 11.514786 -0.013176 -3.003090
									CHANNELS 3 Xrotation Yrotation Zrotation
									JOINT LeftHandRing2
									{
										OFFSET 3.053307 0.000000 0.000000
										CHANNELS 3 Xrotation Yrotation Zrotation
										JOINT LeftHandRing3
										{
											OFFSET 3.295807 0.000000 0.000000
											CHANNELS 3 Xrotation Yrotation Zrotation
											End Site
											{
												OFFSET -1.281006 3.013344 0.375733
											}
										}
									}
								}
								JOINT LeftHandPinky1
								{
									OFFSET 10.518692 -0.960396 -5.730441
									CHANNELS 3 Xrotation Yrotation Zrotation
									JOINT LeftHandPinky2
									{
										OFFSET 2.861649 0.000000 0.000000
										CHANNELS 3 Xrotation Yrotation Zrotation
										JOINT LeftHandPinky3
										{
											OFFSET 2.863380 0.000000 0.000000
											CHANNELS 3 Xrotation Yrotation Zrotation
											End Site
											{
												OFFSET -0.843597 2.711159 0.369971
											}
										}
									}
								}
							}
							JOINT LSleeve
							{
								OFFSET 6.676277 -0.344902 -1.011730
								CHANNELS 3 Xrotation Yrotation Zrotation
								End Site
								{
									OFFSET 0.000000 14.885353 0.000000
								}
							}
						}
					}
				}
				JOINT RightShoulder
				{
					OFFSET -6.197800 13.665199 -4.064700
					CHANNELS 3 Xrotation Yrotation Zrotation
					JOINT RightArm
					{
						OFFSET -7.778100 -0.187103 -1.709300
						CHANNELS 3 Xrotation Yrotation Zrotation
						JOINT RightForeArm
						{
							OFFSET -22.049376 0.000000 0.000000
							CHANNELS 3 Xrotation Yrotation Zrotation
							JOINT RightHand
							{
								OFFSET -23.009392 0.000000 0.000000
								CHANNELS 3 Xrotation Yrotation Zrotation
								JOINT RightHandThumb1
								{
									OFFSET -3.507191 -2.063065 3.133727
									CHANNELS 3 Xrotation Yrotation Zrotation
									JOINT RightHandThumb2
									{
										OFFSET -3.101337 -1.790558 1.790558
										CHANNELS 3 Xrotation Yrotation Zrotation
										JOINT RightHandThumb3
										{
											OFFSET -3.058640 -1.765907 1.765906
											CHANNELS 3 Xrotation Yrotation Zrotation
											End Site
											{
												OFFSET 0.415260 3.926476 -0.049563
											}
										}
									}
								}
								JOINT RightHandIndex1
								{
									OFFSET -11.334419 -0.901459 3.706815
									CHANNELS 3 Xrotation Yrotation Zrotation
									JOINT RightHandIndex2
									{
										OFFSET -3.283112 0.000000 0.000000
										CHANNELS 3 Xrotation Yrotation Zrotation
										JOINT RightHandIndex3
										{
											OFFSET -3.323853 0.000000 0.000000
											CHANNELS 3 Xrotation Yrotation Zrotation
											End Site
											{
												OFFSET 1.135597 3.097809 0.402452
											}
										}
									}
								}
								JOINT RightHandMiddle1
								{
									OFFSET -11.335861 0.000000 0.000000
									CHANNELS 3 Xrotation Yrotation Zrotation
									JOINT RightHandMiddle2
									{
										OFFSET -3.410492 0.000000 0.000000
										CHANNELS 3 Xrotation Yrotation Zrotation
										JOINT RightHandMiddle3
										{
											OFFSET -3.312172 0.000000 0.000000
											CHANNELS 3 Xrotation Yrotation Zrotation
											End Site
											{
												OFFSET 1.150200 3.080154 0.400270
											}
										}
									}
								}
								JOINT RightHandRing1
								{
									OFFSET -11.514786 -0.013176 -3.003090
									CHANNELS 3 Xrotation Yrotation Zrotation
									JOINT RightHandRing2
									{
										OFFSET -3.053307 0.000000 0.000000
										CHANNELS 3 Xrotation Yrotation Zrotation
										JOINT RightHandRing3
										{
											OFFSET -3.295807 0.000000 0.000000
											CHANNELS 3 Xrotation Yrotation Zrotation
											End Site
											{
												OFFSET 1.281006 3.013344 0.375733
											}
										}
									}
								}
								JOINT RightHandPinky1
								{
									OFFSET -10.518692 -0.960396 -5.730441
									CHANNELS 3 Xrotation Yrotation Zrotation
									JOINT RightHandPinky2
									{
										OFFSET -2.861649 0.000000 0.000000
										CHANNELS 3 Xrotation Yrotation Zrotation
										JOINT RightHandPinky3
										{
											OFFSET -2.863380 0.000000 0.000000
											CHANNELS 3 Xrotation Yrotation Zrotation
											End Site
											{
												OFFSET 0.843597 2.711159 0.369971
											}
										}
									}
								}
							}
							JOINT RSleeve
							{
								OFFSET -6.676277 -0.344902 -1.011730
								CHANNELS 3 Xrotation Yrotation Zrotation
								End Site
								{
									OFFSET 0.000000 14.885353 0.000000
								}
							}
						}
					}
				}
				JOINT Backpack
				{
					OFFSET 0.000000 -2.471497 36.677502
					CHANNELS 3 Xrotation Yrotation Zrotation
					End Site
					{
						OFFSET 0.000000 20.427315 0.000000
					}
				}
				JOINT Hood
				{
					OFFSET 0.000000 18.754097 -10.431000
					CHANNELS 3 Xrotation Yrotation Zrotation
					JOINT Hood1
					{
						OFFSET 0.000000 -5.011002 -7.685901
						CHANNELS 3 Xrotation Yrotation Zrotation
						End Site
						{
							OFFSET 0.000000 9.175140 0.000000
						}
					}
				}
				JOINT LHoodieString
				{
					OFFSET 5.250500 16.397697 3.089900
					CHANNELS 3 Xrotation Yrotation Zrotation
					JOINT LHoodieString1
					{
						OFFSET 0.257700 -6.364304 3.694600
						CHANNELS 3 Xrotation Yrotation Zrotation
						JOINT LHoodieString2
						{
							OFFSET 0.000000 -9.643799 2.679100
							CHANNELS 3 Xrotation Yrotation Zrotation
							End Site
							{
								OFFSET 0.000000 10.009018 0.000000
							}
						}
					}
				}
				JOINT RHoodieString
				{
					OFFSET -5.250500 16.397697 3.089900
					CHANNELS 3 Xrotation Yrotation Zrotation
					JOINT RHoodieString1
					{
						OFFSET -0.257700 -6.364304 3.694600
						CHANNELS 3 Xrotation Yrotation Zrotation
						JOINT RHoodieString2
						{
							OFFSET 0.000000 -9.643799 2.679100
							CHANNELS 3 Xrotation Yrotation Zrotation
							End Site
							{
								OFFSET 0.000000 10.009018 0.000000
							}
						}
					}
				}
			}
			JOINT LBackpack_Strap
			{
				OFFSET 15.223200 -7.719803 -6.610900
				CHANNELS 3 Xrotation Yrotation Zrotation
				End Site
				{
					OFFSET 0.000000 16.040596 0.000000
				}
			}
			JOINT RBackpack_Strap
			{
				OFFSET -15.223000 -7.719803 -6.610900
				CHANNELS 3 Xrotation Yrotation Zrotation
				End Site
				{
					OFFSET 0.000000 16.040596 0.000000
				}
			}
		}
	}
	JOINT BoyFacialAnim_Joint
	{
		OFFSET 1.000000 -82.208099 -1.550900
		CHANNELS 3 Xrotation Yrotation Zrotation
		End Site
		{
			OFFSET 0.000000 30.012791 0.000000
		}
	}
}
MOTION
Frames: 4
Frame Time: 0.033333
-14.491352 76.719345 -2.165356 15.487451 6.358879 -10.905521 -0.000000 0.000000 -0.000001 -7.415615 9.355006 -10.163172 25.362236 11.473914 -6.080954 -11.417046 18.272088 6.580608 -0.000003 -0.000002 0.000000 -0.000003 -0.000002 -0.000001 -0.000002 -0.000002 0.000001 -36.890149 -6.897178 -2.898718 37.002482 -4.592712 1.258470 -12.342138 -9.888448 9.277283 0.000000 -0.000000 0.000000 0.000000 -0.000000 0.000000 -0.000001 0.000000 -0.000001 0.230939 -3.276567 5.679835 0.674314 -7.841319 9.388894 0.811181 -7.844395 9.377574 -2.223925 3.029088 -1.086393 7.395540 13.610281 -5.721317 0.000002 -0.000000 -0.000001 0.000002 -0.000000 -0.000001 0.000002 -0.000000 -0.000001 1.212871 -0.770289 -6.733475 60.027480 -98.919485 37.136350 -0.000023 -65.567924 -0.000018 20.364006 -18.125695 22.239905 -1.623356 8.802364 6.907270 -0.427773 22.610670 16.689277 -0.000001 -0.000001 -0.000004 -0.000006 0.000002 -0.000006 -0.000000 -0.000003 0.000008 -0.000001 0.000002 -0.000003 -0.000007 -0.001927 0.015980 0.000004 0.001929 -0.015981 0.000001 0.000000 -0.000003 -0.000001 0.000000 -0.000004 -0.000002 -0.000001 -0.000001 -0.000001 0.000003 -0.000007 -0.018088 4.054259 0.511064 -0.018089 -4.054253 -0.511065 -0.000001 -0.000000 -0.000002 -0.000000 0.000001 0.000000 -0.414003 -8.359831 2.371339 25.440378 34.888640 63.464779 0.000000 12.586399 0.000013 -24.010669 15.133278 -31.509660 -1.898146 -6.986641 -7.116759 6.574148 -31.362361 -1.578234 -0.000000 0.000001 0.000001 0.000001 0.000000 -0.000004 -0.000000 0.000004 -0.000019 -0.000001 0.000000 0.000002 0.000001 0.000000 -0.000008 0.000002 -0.000001 0.000022 0.000001 0.000001 0.000003 0.000001 0.000003 -0.000020 0.000001 -0.000002 0.000027 -0.000000 -0.000000 0.000002 -0.000001 -0.000001 -0.000004 -0.000001 0.000003 -0.000015 -0.000000 -0.000000 0.000000 0.000000 -0.000001 -0.000000 0.000001 -0.000000 0.000000 0.000001 -0.000000 0.000000 0.000001 -0.000000 0.000000 0.000001 -0.000000 0.000000 0.000001 -0.000000 -0.000000 0.000001 -0.000000 -0.000000 0.000001 -0.000000 0.000000 0.000001 -0.000000 -0.000000 0.000001 -0.000000 -0.000000 -0.000000 -0.000000 0.000000 -0.000000 -0.000000 0.000000 -0.000000 0.000000 -0.000001 
-14.357609 76.743141 -1.943968 16.761129 7.149577 -11.438460 0.000001 0.000000 -0.000000 -14.823148 11.102228 -7.566420 34.623226 9.682504 -7.438186 0.213150 12.321070 5.940543 -0.000003 0.000000 0.000002 -0.000003 0.000000 0.000002 -0.000003 0.000001 0.000000 -37.669128 0.073478 2.725888 39.330394 -4.100355 1.947281 -16.526947 -3.652404 5.911686 0.000000 0.000000 -0.000000 0.000000 0.000000 -0.000000 -0.000001 0.000000 0.000000 -0.369643 -3.847576 5.872685 -0.533690 -9.291474 9.445744 -0.387829 -9.346179 9.404840 -1.271589 3.725395 -1.151670 6.891257 17.076038 -5.423036 0.000001 0.000000 0.000000 0.000001 0.000000 0.000000 0.000001 0.000000 0.000000 0.829285 0.797705 -8.041979 28.964903 -96.532334 -4.488928 0.000027 -57.631941 0.000038 10.432445 -7.108099 41.722511 -1.623351 8.802366 6.907268 -0.427779 22.610670 16.689284 -0.000002 0.000001 0.000001 -0.000004 0.000002 -0.000004 -0.000001 -0.000003 0.000010 0.000001 0.000000 -0.000002 -0.000007 -0.001928 0.015981 0.000002 0.001928 -0.015985 0.000001 -0.000000 0.000000 0.000001 0.000000 -0.000006 -0.000004 -0.000001 -0.000000 0.000000 -0.000000 -0.000000 -0.018089 4.054260 0.511066 -0.018090 -4.054254 -0.511064 0.000000 0.000002 0.000000 -0.000000 0.000000 -0.000000 -0.377130 -8.165111 2.546595 25.421973 30.775135 60.839500 0.000003 17.989590 -0.000011 -26.828893 28.654652 -34.843664 -1.898144 -6.986641 -7.116763 6.574152 -31.362357 -1.578240 0.000000 0.000001 -0.000002 -0.000002 -0.000003 0.000003 0.000000 0.000001 -0.000014 -0.000004 -0.000001 0.000003 0.000000 -0.000003 -0.000006 0.000003 -0.000004 0.000024 0.000002 0.000001 -0.000000 -0.000000 -0.000001 -0.000015 0.000002 -0.000004 0.000026 -0.000000 0.000001 0.000002 -0.000002 -0.000001 -0.000005 -0.000001 0.000002 -0.000007 -0.000001 -0.000000 0.000004 -0.000000 -0.000000 0.000000 0.000000 0.000001 0.000000 0.000000 0.000001 0.000000 0.000000 0.000001 0.000000 0.000000 0.000001 0.000000 0.000000 0.000001 0.000000 -0.000000 0.000001 -0.000000 0.000000 0.000001 0.000000 0.000000 0.000001 0.000000 -0.000000 0.000001 -0.000000 -0.000001 -0.000000 0.000000 -0.000001 -0.000000 0.000000 0.000001 0.000000 -0.000000 
-14.342587 76.307953 -1.594559 16.481658 9.490428 -11.725994 0.000001 0.000000 0.000000 -23.520690 12.223700 -1.691063 45.146652 8.846803 -7.218118 21.941708 6.405888 -2.747166 -0.000000 0.000000 0.000003 -0.000000 0.000000 0.000003 0.000004 -0.000001 -0.000001 -36.454055 0.426138 5.635719 42.819750 -5.100562 2.002756 -20.354111 -1.011669 3.599487 0.000000 -0.000001 0.000000 0.000000 -0.000001 0.000000 -0.000000 0.000001 0.000000 -0.465056 -4.546747 5.578855 -0.640955 -10.848407 9.034979 -0.510511 -10.905607 8.985833 -1.406458 4.008326 -0.844326 6.443038 18.831045 -5.011625 -0.000000 0.000000 -0.000001 -0.000000 0.000000 -0.000001 -0.000000 0.000000 -0.000001 0.320966 3.142995 -9.643601 39.343099 -95.991158 -6.252371 -0.000009 -44.481518 -0.000009 6.447943 -12.028609 55.831479 -1.623354 8.802366 6.907265 -0.427777 22.610674 16.689279 -0.000001 -0.000000 0.000002 -0.000000 0.000002 -0.000007 0.000003 -0.000002 0.000008 -0.000006 -0.000003 0.000001 -0.000004 -0.001928 0.015975 0.000004 0.001930 -0.015981 -0.000000 0.000000 -0.000001 0.000002 -0.000001 -0.000002 -0.000003 0.000001 -0.000000 0.000003 0.000000 -0.000004 -0.018085 4.054261 0.511061 -0.018087 -4.054259 -0.511065 0.000001 0.000002 0.000002 -0.000001 0.000000 0.000004 -0.381426 -8.565939 3.024159 20.069707 28.936875 61.077997 0.000002 22.395029 -0.000006 -28.414533 36.678314 -33.687490 -1.898146 -6.986639 -7.116760 6.574151 -31.362357 -1.578236 0.000001 -0.000002 0.000001 0.000001 -0.000003 0.000007 -0.000002 0.000001 -0.000019 0.000002 -0.000001 0.000002 0.000001 0.000000 -0.000008 0.000000 -0.000002 0.000021 0.000002 -0.000000 -0.000004 0.000001 0.000001 -0.000008 0.000004 0.000001 0.000022 0.000000 -0.000000 0.000000 -0.000001 -0.000002 -0.000001 -0.000001 0.000000 -0.000017 0.000002 -0.000000 0.000000 0.000001 -0.000000 0.000000 0.000000 -0.000001 -0.000000 0.000000 -0.000001 -0.000000 0.000000 -0.000001 -0.000000 0.000000 -0.000001 -0.000000 0.000000 -0.000001 -0.000000 -0.000000 -0.000001 -0.000001 0.000000 -0.000001 -0.000000 0.000000 -0.000001 -0.000000 -0.000000 -0.000001 -0.000001 0.000001 0.000000 0.000000 0.000001 0.000000 0.000000 0.000001 0.000000 0.000000 
-14.212488 75.370880 -1.363312 14.545955 12.137435 -12.144748 -0.000000 -0.000001 0.000001 -33.446244 12.439060 4.408530 60.737341 9.610857 -5.747596 28.268659 6.400568 2.361250 -0.000000 -0.000000 0.000002 -0.000000 -0.000000 0.000003 0.000002 -0.000002 0.000001 -33.307168 -4.076493 5.682114 45.533576 -8.347727 1.140156 -24.325307 -1.442401 4.708582 0.000000 0.000000 -0.000000 0.000000 0.000000 -0.000000 -0.000002 -0.000000 -0.000001 0.113871 -4.894489 4.779946 0.579663 -11.594928 8.531792 0.667308 -11.633186 8.481153 -2.007317 3.723551 -0.197458 5.413126 18.262071 -4.211040 0.000001 -0.000000 -0.000000 0.000001 -0.000000 -0.000000 0.000001 -0.000000 -0.000000 -0.371991 7.780203 -10.904684 112.944814 -102.495574 56.064826 0.000010 -27.437587 0.000016 12.110188 -26.379920 43.771360 -1.623359 8.802370 6.907267 -0.427775 22.610670 16.689279 -0.000003 -0.000001 0.000000 -0.000008 0.000003 0.000000 -0.000000 0.000000 0.000007 -0.000001 0.000002 -0.000002 -0.000009 -0.001925 0.015986 0.000004 0.001928 -0.015981 0.000000 -0.000001 -0.000003 -0.000002 0.000003 -0.000000 -0.000006 0.000000 0.000003 0.000001 0.000001 -0.000002 -0.018090 4.054256 0.511064 -0.018088 -4.054253 -0.511060 -0.000000 -0.000001 0.000001 0.000001 -0.000005 0.000001 -0.446593 -9.953939 3.945540 12.489982 32.392179 61.787619 -0.000002 25.647342 -0.000018 -27.440154 34.762360 -31.927306 -1.898146 -6.986638 -7.116762 6.574148 -31.362361 -1.578239 0.000004 0.000001 -0.000002 0.000001 -0.000001 -0.000002 -0.000004 0.000004 -0.000015 -0.000000 0.000001 -0.000002 0.000004 -0.000001 -0.000005 0.000000 -0.000005 0.000019 0.000001 0.000001 -0.000004 -0.000001 0.000003 -0.000015 -0.000002 -0.000003 0.000023 0.000000 0.000002 0.000001 -0.000001 0.000001 -0.000004 -0.000001 0.000003 -0.000013 -0.000004 0.000003 0.000002 -0.000001 -0.000000 0.000000 0.000001 0.000001 -0.000001 0.000001 0.000001 -0.000001 0.000001 0.000001 -0.000001 0.000001 0.000001 -0.000001 0.000001 0.000001 -0.000001 0.000001 -0.000000 -0.000001 0.000001 0.000001 -0.000001 0.000001 0.000001 -0.000001 0.000001 -0.000000 -0.000001 -0.000000 0.000000 -0.000000 -0.000000 0.000000 -0.000000 -0.000000 -0.000001 0.000001 
